<?xml version="1.0" encoding="UTF-8" standalone="no"?>
<!-- Created with Inkscape (http://www.inkscape.org/) -->

<svg
   width="210mm"
   height="297mm"
   viewBox="0 0 210 297"
   version="1.1"
   id="svg3910"
   inkscape:version="1.2.2 (732a01da63, 2022-12-09)"
   sodipodi:docname="portrait2.svg"
   xmlns:inkscape="http://www.inkscape.org/namespaces/inkscape"
   xmlns:sodipodi="http://sodipodi.sourceforge.net/DTD/sodipodi-0.dtd"
   xmlns="http://www.w3.org/2000/svg"
   xmlns:svg="http://www.w3.org/2000/svg">
  <sodipodi:namedview
     id="namedview3912"
     pagecolor="#ffffff"
     bordercolor="#000000"
     borderopacity="0.25"
     inkscape:showpageshadow="2"
     inkscape:pageopacity="0.0"
     inkscape:pagecheckerboard="0"
     inkscape:deskcolor="#d1d1d1"
     inkscape:document-units="mm"
     showgrid="false"
     inkscape:zoom="0.78127806"
     inkscape:cx="396.78575"
     inkscape:cy="561.89982"
     inkscape:window-width="1920"
     inkscape:window-height="1057"
     inkscape:window-x="-8"
     inkscape:window-y="-8"
     inkscape:window-maximized="1"
     inkscape:current-layer="layer1" />
  <defs
     id="defs3907" />
  <g
     inkscape:label="Calque 1"
     inkscape:groupmode="layer"
     id="layer1">
    <path
       style="fill:none;stroke:#000000;stroke-width:0.79375"
       d="m 195.4218,29.124287 c 9.76709,7.914706 -29.98935,28.218419 -26.41504,31.494867 4.06385,3.725201 34.00277,-7.105306 33.18814,8.805017 -0.71224,13.910557 -33.83118,26.16071 -32.84949,31.833529 0.94923,5.4852 36.61462,3.59777 35.89737,32.84948 -0.58056,23.67739 -49.44355,27.43102 -47.75028,35.89738 1.69328,8.46636 28.53148,5.12502 30.47891,26.7537 2.56046,28.43725 -132.026822,75.14131 -149.685292,42.33182 -13.33353,-24.77374 29.88365,-29.86484 25.73774,-44.02508 -3.07912,-10.51667 -35.58286,7.66286 -38.94526,-29.80161 -3.16065,-35.2165 25.737731,-41.99315 25.737731,-47.41163 0,-5.41847 -17.61003,-5.75712 -17.61003,-11.51425 0,-5.75712 16.594069,-10.159635 16.594069,-16.932722 0,-6.77309 -26.989982,-10.982145 -28.108322,-24.044469 C 19.174946,35.9602 164.82608,4.3311973 195.4218,29.124287 Z"
       id="path4283"
       sodipodi:nodetypes="sssssssssssssss" />
  </g>
</svg>
